<?xml version="1.0" encoding="UTF-8"?><svg id="Layer_1" xmlns="http://www.w3.org/2000/svg" viewBox="0 0 231 227"><path d="M194.25,69v82.63c0,1.28-.04,2.55-.13,3.81-2.33,35.44-36.97,63.56-79.37,63.56s-77.04-28.12-79.37-63.56c-.09-1.26-.13-2.53-.13-3.81V69H194.25Z" fill="#ff6969"/><path d="M174.25,79.28v67.6c0,1.05-.03,2.09-.1,3.12-1.77,28.99-28.13,52-60.4,52s-58.63-23-60.4-52c-.07-1.03-.1-2.07-.1-3.12V79.28h121Z" fill="#7eaa8b"/><g><circle cx="181.5" cy="23" r="20.75" fill="#ff6969"/><path d="M181.5,4.25c10.34,0,18.75,8.41,18.75,18.75s-8.41,18.75-18.75,18.75-18.75-8.41-18.75-18.75,8.41-18.75,18.75-18.75m0-4c-12.56,0-22.75,10.19-22.75,22.75s10.19,22.75,22.75,22.75,22.75-10.19,22.75-22.75S194.06,.25,181.5,.25h0Z" fill="#807171"/></g><g><circle cx="50.5" cy="23" r="21" fill="#ff6969"/><path d="M50.5,4c10.48,0,19,8.52,19,19s-8.52,19-19,19-19-8.52-19-19S40.02,4,50.5,4m0-4c-12.7,0-23,10.3-23,23s10.3,23,23,23,23-10.3,23-23S63.2,0,50.5,0h0Z" fill="#bf7e7e"/></g><path d="M154.5,103.48c13.73-1.55,25.75,9.53,25.75,23.91v31.65c0,1.3-.03,2.57-.1,3.85-.66,13.3-4.72,25.57-11.23,35.74-10.98,17.18-28.91,28.37-49.17,28.37-6.54,0-12.85-1.17-18.74-3.32-23.2-8.49-40.25-32.3-41.66-60.79-.07-1.28-.1-2.55-.1-3.85v-31.87c0-14.48,12.15-25.61,25.97-23.96,23.21,2.77,46.3,2.86,69.28,.27Z" fill="#69ff93"/><path d="M9,59c72.04,24.07,143.04,23.93,213,0" fill="none" stroke="#ff6969" stroke-linecap="round" stroke-miterlimit="10" stroke-width="18"/></svg>